# xmcd
#
# Track frame offsets: 
#        150
#        19660
#        42642
#        61867
#        76240
#        94979
#        114256
#        132641
#        149640
#        168793
#        189365
#        203000
#        219373
#        236836
#        254975
#        272249
#
# Disc length: 3849 seconds
#
# Revision: 0
# Processed by: cddbd v1.5.2PL0 Copyright (c) Steve Scherf et al.
# Submitted via: ExactAudioCopy v1.0b3
#
DISCID=ef0f0710
DTITLE=東京佼成ウインドオーケストラ,他 - 全日本吹奏楽コンクール課題曲参考演奏集1979-1982
DYEAR=2015
DGENRE=Classical
TTITLE0=フェリスタス 
TTITLE1=プレリュード 
TTITLE2=幻想曲「幼い日の想い出」 
TTITLE3=行進曲「青春は限りなく」
TTITLE4=吹奏楽のための「花祭り」 
TTITLE5=吹奏楽のための序曲「南の島から」-沖縄旋律による-   
TTITLE6=北海の大漁歌 
TTITLE7=行進曲「オーバー・ザ・ギャラクシー」 
TTITLE8=イリュージョン 
TTITLE9=東北地方の民謡による「コラージュ」 
TTITLE10=シンフォニック・マーチ 
TTITLE11=行進曲「青空の下で」 
TTITLE12=吹奏楽のためのカプリチオ 
TTITLE13=序奏とアレグロ 
TTITLE14=アイヌの輪舞 
TTITLE15=サンライズ・マーチ 
EXTD=
EXTT0=
EXTT1=
EXTT2=
EXTT3=
EXTT4=
EXTT5=
EXTT6=
EXTT7=
EXTT8=
EXTT9=
EXTT10=
EXTT11=
EXTT12=
EXTT13=
EXTT14=
EXTT15=
PLAYORDER=
